<?xml version="1.0" encoding="UTF-8" standalone="no"?>
<svg
   xmlns:dc="http://purl.org/dc/elements/1.1/"
   xmlns:cc="http://creativecommons.org/ns#"
   xmlns:rdf="http://www.w3.org/1999/02/22-rdf-syntax-ns#"
   xmlns:svg="http://www.w3.org/2000/svg"
   xmlns="http://www.w3.org/2000/svg"
   xmlns:sodipodi="http://sodipodi.sourceforge.net/DTD/sodipodi-0.dtd"
   xmlns:inkscape="http://www.inkscape.org/namespaces/inkscape"
   data-name="Layer 1"
   viewBox="0 0 128 128"
   x="0px"
   y="0px"
   version="1.1"
   id="svg14"
   sodipodi:docname="thermometer_128.svg"
   inkscape:version="0.92.4 (5da689c313, 2019-01-14)"
   width="128"
   height="128"
   inkscape:export-filename="C:\Users\Trent\Documents\Arduino\icons\noun_Temperature_1513774.png"
   inkscape:export-xdpi="96"
   inkscape:export-ydpi="96">
  <metadata
     id="metadata20">
    <rdf:RDF>
      <cc:Work
         rdf:about="">
        <dc:format>image/svg+xml</dc:format>
        <dc:type
           rdf:resource="http://purl.org/dc/dcmitype/StillImage" />
        <dc:title>04</dc:title>
      </cc:Work>
    </rdf:RDF>
  </metadata>
  <defs
     id="defs18" />
  <sodipodi:namedview
     pagecolor="#ffffff"
     bordercolor="#666666"
     borderopacity="1"
     objecttolerance="10"
     gridtolerance="10"
     guidetolerance="10"
     inkscape:pageopacity="0"
     inkscape:pageshadow="2"
     inkscape:window-width="1353"
     inkscape:window-height="1282"
     id="namedview16"
     showgrid="false"
     inkscape:zoom="1.888"
     inkscape:cx="-23.240532"
     inkscape:cy="93.823374"
     inkscape:window-x="2329"
     inkscape:window-y="540"
     inkscape:window-maximized="0"
     inkscape:current-layer="svg14" />
  <title
     id="title2">04</title>
  <g
     data-name="Group"
     id="g8"
     transform="matrix(1.3782435,0,0,1.3782435,-37.657045,-4.8626699)">
    <path
       data-name="Compound Path"
       d="M 65,56.5 V 18.6 a 15,15 0 0 0 -30,0 v 37.9 a 22.8,22.8 0 0 0 12.4,39.7 l 2.5,0.2 A 23.3,23.3 0 0 0 65.2,90.6 22.9,22.9 0 0 0 65,56.5 Z M 61.1,86.1 A 16.2,16.2 0 0 1 48.1,90.2 16.6,16.6 0 0 1 39.9,60.4 3.2,3.2 0 0 0 41,58 V 18.6 a 9,9 0 0 1 18,0 V 58 a 3.2,3.2 0 0 0 1.1,2.4 16.3,16.3 0 0 1 6.6,13.2 16.6,16.6 0 0 1 -5.6,12.5 z"
       id="path4"
       inkscape:connector-curvature="0" />
    <path
       data-name="Path"
       d="M 53,61.7 V 18.1 h -6 v 43.6 a 12.2,12.2 0 0 0 -9.3,11.9 12.3,12.3 0 1 0 24.6,0 A 12.2,12.2 0 0 0 53,61.7 Z"
       id="path6"
       inkscape:connector-curvature="0" />
  </g>
</svg>
